<svg xmlns="http://www.w3.org/2000/svg" shape-rendering="geometricPrecision" text-rendering="geometricPrecision" image-rendering="optimizeQuality" fill-rule="evenodd" clip-rule="evenodd" viewBox="0 0 512 512"><path fill="#ED4949" fill-rule="nonzero" d="M256 0c19.33 0 36.9 7.9 49.62 20.62 12.72 12.72 20.62 30.28 20.62 49.62v16.19l11.45-11.45c13.67-13.67 31.68-20.51 49.66-20.51 38.83 0 70.18 31.39 70.18 70.18 0 29.53-14.09 43.25-31.96 61.11h16.19c38.62 0 70.24 31.63 70.24 70.24 0 38.58-31.66 70.24-70.24 70.24h-16.19l11.45 11.45 1.08 1.18c12.95 13.53 19.43 31.02 19.43 48.48 0 17.99-6.84 36-20.51 49.67-13.67 13.67-31.68 20.51-49.67 20.51-17.99 0-35.99-6.84-49.66-20.51l-11.45-11.45v16.19c0 19.34-7.9 36.9-20.62 49.62C292.9 504.1 275.33 512 256 512c-38.62 0-70.24-31.62-70.24-70.24v-16.19l-11.45 11.45c-13.67 13.67-31.68 20.51-49.66 20.51-38.83 0-70.18-31.39-70.18-70.18 0-29.53 14.09-43.25 31.96-61.11H70.24C31.61 326.24 0 294.6 0 256c0-19.33 7.9-36.9 20.62-49.62 12.72-12.72 30.28-20.62 49.62-20.62h16.19l-11.45-11.45-1.08-1.18c-12.95-13.53-19.43-31.02-19.43-48.48 0-17.99 6.84-36 20.51-49.67 13.67-13.67 31.68-20.51 49.67-20.51 17.99 0 35.99 6.84 49.66 20.51l11.45 11.45V70.24C185.76 31.61 217.4 0 256 0z"/><path fill="#FE7678" d="M307.77 70.24v60.78l42.98-42.98c48.42-48.43 121.64 24.79 73.21 73.21l-42.98 42.98h60.78c68.49 0 68.49 103.54 0 103.54h-60.78l42.98 42.98c48.43 48.42-24.79 121.64-73.21 73.21l-42.98-42.98v60.78c0 68.49-103.54 68.49-103.54 0v-60.78l-42.98 42.98c-48.42 48.43-121.64-24.79-73.21-73.21l42.98-42.98H70.24c-68.49 0-68.49-103.54 0-103.54h60.78l-42.98-42.98c-48.43-48.42 24.79-121.64 73.21-73.21l42.98 42.98V70.24c0-68.49 103.54-68.49 103.54 0z"/><path fill="#FE918F" fill-rule="nonzero" d="M256 184.65c39.3 0 71.35 32.05 71.35 71.35S295.3 327.35 256 327.35 184.65 295.3 184.65 256s32.05-71.35 71.35-71.35z"/><path fill="#FEF7E5" d="M256 202.23c29.69 0 53.77 24.08 53.77 53.77 0 29.7-24.08 53.77-53.77 53.77-29.69 0-53.77-24.07-53.77-53.77 0-29.69 24.08-53.77 53.77-53.77z"/></svg>